<svg width="24" height="24" viewBox="0 0 24 24" fill="none" xmlns="http://www.w3.org/2000/svg">
<path d="M23.6048 8.70885C23.5315 8.49286 23.3965 8.30307 23.2165 8.16292C23.0366 8.02277 22.8195 7.93838 22.5921 7.92018L15.941 7.39168L13.0628 1.02052C12.9711 0.815315 12.822 0.641025 12.6335 0.518684C12.445 0.396343 12.2251 0.331178 12.0003 0.331055C11.7756 0.330932 11.5556 0.395855 11.3669 0.517989C11.1783 0.640123 11.029 0.814249 10.9371 1.01935L8.05895 7.39168L1.40778 7.92018C1.18431 7.93789 0.970677 8.0196 0.79243 8.15554C0.614183 8.29148 0.478874 8.47589 0.402691 8.68672C0.326508 8.89754 0.312677 9.12586 0.362852 9.34434C0.413027 9.56282 0.525083 9.76222 0.685616 9.91868L5.60078 14.7102L3.86245 22.2375C3.80967 22.4654 3.82658 22.7038 3.91101 22.9219C3.99543 23.14 4.14346 23.3278 4.33589 23.4607C4.52831 23.5936 4.75626 23.6657 4.99013 23.6674C5.22401 23.6692 5.45302 23.6007 5.64745 23.4707L12 19.2357L18.3525 23.4707C18.5512 23.6026 18.7855 23.6706 19.024 23.6653C19.2625 23.6601 19.4937 23.582 19.6864 23.4414C19.8792 23.3009 20.0243 23.1047 20.1022 22.8793C20.1801 22.6538 20.1871 22.4099 20.1223 22.1803L17.9885 14.7137L23.2805 9.95135C23.627 9.63868 23.7541 9.15102 23.6048 8.70885Z" fill="#F59E0B"/>
</svg>
